<svg xmlns="http://www.w3.org/2000/svg" width="655.359" height="655.359" fill-rule="evenodd" clip-rule="evenodd" image-rendering="optimizeQuality" shape-rendering="geometricPrecision" text-rendering="geometricPrecision" viewBox="0 0 6.827 6.827" id="snow"><path fill="#1e88e5" fill-rule="nonzero" d="M3.574 1.014a.16.16 0 0 0-.322 0v4.798a.16.16 0 0 0 .322 0V1.014z"></path><path fill="#1976d2" fill-rule="nonzero" d="M2.837 5.618a.16.16 0 0 0 .26.188l.446-.616a.16.16 0 0 0-.26-.188l-.446.616z"></path><path fill="#1976d2" fill-rule="nonzero" d="M3.73 5.806a.16.16 0 0 0 .26-.188l-.447-.616a.16.16 0 0 0-.26.188l.446.616zM3.096 1.02a.16.16 0 0 0-.26.189l.446.616a.16.16 0 0 0 .26-.189l-.446-.616z"></path><path fill="#1976d2" fill-rule="nonzero" d="M3.99 1.209a.16.16 0 0 0-.26-.189l-.447.616a.16.16 0 0 0 .26.189l.446-.616z"></path><path fill="#1e88e5" fill-rule="nonzero" d="M5.224 1.83a.16.16 0 0 0-.228-.227L1.603 4.996a.16.16 0 0 0 .228.228L5.224 1.83z"></path><path fill="#1976d2" fill-rule="nonzero" d="M1.447 4.565a.16.16 0 0 0 .05.317l.752-.12a.16.16 0 0 0-.05-.317l-.752.12z"></path><path fill="#1976d2" fill-rule="nonzero" d="M1.945 5.329a.16.16 0 0 0 .317.05l.12-.75a.16.16 0 0 0-.317-.051l-.12.75zm2.937-3.831a.16.16 0 0 0-.317-.05l-.12.75a.16.16 0 0 0 .317.05l.12-.75z"></path><path fill="#1976d2" fill-rule="nonzero" d="M5.38 2.262a.16.16 0 0 0-.051-.317l-.751.12a.16.16 0 0 0 .05.317l.751-.12z"></path><path fill="#1e88e5" fill-rule="nonzero" d="M5.812 3.574a.16.16 0 0 0 0-.322H1.014a.16.16 0 0 0 0 .322h4.798z"></path><path fill="#1976d2" fill-rule="nonzero" d="M1.209 2.837a.16.16 0 0 0-.189.26l.616.446a.16.16 0 0 0 .189-.26l-.616-.446z"></path><path fill="#1976d2" fill-rule="nonzero" d="M1.02 3.73a.16.16 0 0 0 .189.26l.616-.447a.16.16 0 0 0-.189-.26l-.616.446zm4.786-.633a.16.16 0 0 0-.188-.26l-.616.446a.16.16 0 0 0 .188.26l.616-.446z"></path><path fill="#1976d2" fill-rule="nonzero" d="M5.618 3.99a.16.16 0 0 0 .188-.26l-.616-.447a.16.16 0 0 0-.188.26l.616.446z"></path><path fill="#1e88e5" fill-rule="nonzero" d="M4.996 5.224a.16.16 0 0 0 .228-.228L1.83 1.603a.16.16 0 0 0-.228.228l3.393 3.393z"></path><path fill="#1976d2" fill-rule="nonzero" d="M2.262 1.447a.16.16 0 0 0-.317.05l.12.752a.16.16 0 0 0 .317-.05l-.12-.752z"></path><path fill="#1976d2" fill-rule="nonzero" d="M1.498 1.945a.16.16 0 0 0-.05.317l.75.12a.16.16 0 0 0 .05-.317l-.75-.12zm3.83 2.937a.16.16 0 0 0 .051-.317l-.75-.12a.16.16 0 0 0-.051.317l.75.12z"></path><path fill="#1976d2" fill-rule="nonzero" d="M4.565 5.38a.16.16 0 0 0 .317-.051l-.12-.751a.16.16 0 0 0-.317.05l.12.751z"></path><path fill="none" d="M0 0h6.827v6.827H0z"></path></svg>